<svg xmlns="http://www.w3.org/2000/svg" xmlns:xlink="http://www.w3.org/1999/xlink" version="1.1" id="v-2749" width="664" height="867"><g id="v-2750" class="viewport"><g id="j_149" model-id="1270d307-885a-45be-ba9b-adca4b14e220" class="element tp Element" transform="translate(601,14)"><polygon class="ui-arrowhead" fill="#000000" points="0,0 4.2,11.2 11.8,2" id="v-2752" transform="translate(-5.900000095367432,27.34645652770996)"/>
<rect class="ui-label-anchor" fill="none" width="1" height="1" id="v-2754" transform="translate(33.346458435058594,-0.5)"/>
<g class="rotatable" id="v-2756"><g class="scalable" id="v-2764">
<rect x="0" y="0" width="28.346457481384277" height="28.346456915242126" opacity="0" id="v-2765"/>
<path class="ui-stem" fill="none" stroke="#000000" stroke-width="1" d="M28.346457481384277,0C16.68079997942998,2.22616153784624,6.9775895338792076,13.35696922707744,0,28.346456915242126" id="v-2763"/>
</g></g><rect class="ui-number-box" id="v-2757" stroke="none" stroke-width="0" fill="#FFFFFF" x="0" y="0" width="0" height="0"/><path class="ui-number-leadline" id="v-2758" stroke="#000000" fill="none"/><text class="ui-number-label" id="v-2759" font-family="OpenSansCondensedLight" font-size="14pt" fill="black" transform="translate(0,0)"/><rect class="ui-label-box" id="v-2760" stroke-width="0" fill="none" width="1" height="1" transform="translate(33.34646224975586,-0.5)"/><text class="ui-label" id="v-2761" font-family="OpenSansCondensedLight" font-size="14pt" fill="black" text-decoration="none" transform="translate(33.34646224975586,-0.5)"><tspan x="0" y="6.800011250000001">200</tspan></text><path class="ui-number-underline" id="v-2762" stroke="#000000" fill="none" transform="translate(33.34646224975586,-0.5)"/></g><g id="j_156" model-id="527c4db1-2c94-4a7e-b3c0-a18cc365fabe" class="element tp Element" transform="translate(72.99999999999932,242.000000000002)"><g class="rotatable" id="v-2894"><g class="scalable" id="v-2904">
<path class="ui-fill ui-stroke js-perimeter" d="M510.98888841111886,0H0v93.9979559895209h510.98888841111886V0L510.98888841111886,0z" id="v-2901" stroke="#000000" stroke-dasharray="none" fill="#FFFFFF"/>
<rect class="ui-interior-label" x="22.35437712002615" y="4.285621093747153" width="466.3356040894786" height="85.4267138020266" id="v-2902" fill="none"/>
<circle class="js-number-connector-1 js-link-connector" fill="none" cx="255.49444420555943" cy="0" r="0.1" id="v-2905"/>
<circle class="js-number-connector-2 js-link-connector" fill="none" cx="382.1322679400996" cy="0" r="0.1" id="v-2903"/>
<circle class="js-number-connector-3 js-link-connector" fill="none" cx="510.98888841111886" cy="23.703566192320565" r="0.1" id="v-2906"/>
<circle class="js-number-connector-4 js-link-connector" fill="none" cx="510.98888841111886" cy="46.99897799476045" r="0.1" id="v-2907"/>
<circle class="js-number-connector-5 js-link-connector" fill="none" cx="510.98888841111886" cy="70.29438979720032" r="0.1" id="v-2908"/>
<circle class="js-number-connector-6 js-link-connector" fill="none" cx="382.1322679400996" cy="93.9979559895209" r="0.1" id="v-2909"/>
<circle class="js-number-connector-7 js-link-connector" fill="none" cx="255.49444420555943" cy="93.9979559895209" r="0.1" id="v-2910"/>
<circle class="js-number-connector-8 js-link-connector" fill="none" cx="128.9120903894312" cy="93.9979559895209" r="0.1" id="v-2911"/>
<circle class="js-number-connector-9 js-link-connector" fill="none" cx="0" cy="70.29438979720032" r="0.1" id="v-2912"/>
<circle class="js-number-connector-10 js-link-connector" fill="none" cx="0" cy="46.99897799476045" r="0.1" id="v-2913"/>
<circle class="js-number-connector-11 js-link-connector" fill="none" cx="0" cy="23.703566192320565" r="0.1" id="v-2914"/>
<circle class="js-number-connector-12 js-link-connector" fill="none" cx="128.9120903894312" cy="0" r="0.1" id="v-2915"/>
</g></g><rect class="ui-number-box" id="v-2895" stroke="none" stroke-width="0" fill="#FFFFFF" x="0" y="0" width="0" height="0" transform="translate(382.0322570800781,-0.10000000149011612)"/><path class="ui-number-leadline" id="v-2896" stroke="#000000" fill="none" d=""/><text class="ui-number-label" id="v-2897" font-family="OpenSansCondensedLight" font-size="14pt" fill="black" transform="translate(382.0322570800781,-0.10000000149011612)"/><rect class="ui-label-box" id="v-2898" stroke-width="0" fill="none" width="466.3355941772461" height="85.42671251296997" transform="translate(22.35437774658203,4.285621166229248)"/><text class="ui-label" id="v-2899" font-family="OpenSansCondensedLight" font-size="14pt" fill="black" transform="translate(22.35437774658203,4.285621166229248)" text-anchor="middle"><tspan x="233.1678009033203" y="49.01336726806641">VIRTUAL ENVIRONMENT 202</tspan></text><path class="ui-number-underline" id="v-2900" stroke="#000000" fill="none" transform="translate(22.35437774658203,4.285621166229248)" d="M 332.6573905944824 51 360.6533737182617 51"/></g><g id="j_150" model-id="41825c15-034e-4145-999a-eac54e0cb6bd" class="element tp Element" transform="translate(74.99999999999932,556.0000000000039)"><g class="rotatable" id="v-2766"><g class="scalable" id="v-2776">
<path class="ui-fill ui-stroke js-perimeter" d="M510.98888841111886,0H0v96.9978907551439h510.98888841111886V0L510.98888841111886,0z" id="v-2773" stroke="#000000" stroke-dasharray="none" fill="#FFFFFF"/>
<rect class="ui-interior-label" x="22.35437712002615" y="4.422396235036956" width="466.3356040894786" height="88.15309828506999" id="v-2774" fill="none"/>
<circle class="js-number-connector-1 js-link-connector" fill="none" cx="255.49444420555943" cy="0" r="0.1" id="v-2777"/>
<circle class="js-number-connector-2 js-link-connector" fill="none" cx="382.1322679400996" cy="0" r="0.1" id="v-2778"/>
<circle class="js-number-connector-3 js-link-connector" fill="none" cx="510.98888841111886" cy="24.460062985692495" r="0.1" id="v-2775"/>
<circle class="js-number-connector-4 js-link-connector" fill="none" cx="510.98888841111886" cy="48.49894537757195" r="0.1" id="v-2779"/>
<circle class="js-number-connector-5 js-link-connector" fill="none" cx="510.98888841111886" cy="72.5378277694514" r="0.1" id="v-2780"/>
<circle class="js-number-connector-6 js-link-connector" fill="none" cx="382.1322679400996" cy="96.9978907551439" r="0.1" id="v-2781"/>
<circle class="js-number-connector-7 js-link-connector" fill="none" cx="255.49444420555943" cy="96.9978907551439" r="0.1" id="v-2782"/>
<circle class="js-number-connector-8 js-link-connector" fill="none" cx="128.9120903894312" cy="96.9978907551439" r="0.1" id="v-2783"/>
<circle class="js-number-connector-9 js-link-connector" fill="none" cx="0" cy="72.5378277694514" r="0.1" id="v-2784"/>
<circle class="js-number-connector-10 js-link-connector" fill="none" cx="0" cy="48.49894537757195" r="0.1" id="v-2785"/>
<circle class="js-number-connector-11 js-link-connector" fill="none" cx="0" cy="24.460062985692495" r="0.1" id="v-2786"/>
<circle class="js-number-connector-12 js-link-connector" fill="none" cx="128.9120903894312" cy="0" r="0.1" id="v-2787"/>
</g></g><rect class="ui-number-box" id="v-2767" stroke="none" stroke-width="0" fill="#FFFFFF" x="0" y="0" width="0" height="0" transform="translate(510.88885498046875,24.360063552856445)"/><path class="ui-number-leadline" id="v-2768" stroke="#000000" fill="none" d=""/><text class="ui-number-label" id="v-2769" font-family="OpenSansCondensedLight" font-size="14pt" fill="black" transform="translate(510.8888854980469,24.360063552856445)"/><rect class="ui-label-box" id="v-2770" stroke-width="0" fill="none" width="466.3355941772461" height="88.1530966758728" transform="translate(22.35437774658203,4.422396183013916)"/><text class="ui-label" id="v-2771" font-family="OpenSansCondensedLight" font-size="14pt" fill="black" transform="translate(22.35437774658203,4.422396183013916)" text-anchor="middle"><tspan x="233.1678009033203" y="50.376556965332036">OPERATING SYSTEM 204</tspan></text><path class="ui-number-underline" id="v-2772" stroke="#000000" fill="none" transform="translate(22.35437774658203,4.422396183013916)" d="M 312.4988212585449 52 340.4948043823242 52"/></g><g id="j_151" model-id="6c270979-2b71-4697-b4a3-c9a292b6b0f5" class="element tp Element" transform="translate(67.99999999999932,399.00000000000017)"><g class="rotatable" id="v-2788"><g class="scalable" id="v-2798">
<path class="ui-fill ui-stroke js-perimeter" d="M187.9959119790418,0H0v90.99802122389788h187.9959119790418V0L187.9959119790418,0z" id="v-2795" stroke="#000000" stroke-dasharray="none" fill="#FFFFFF"/>
<rect class="ui-interior-label" x="8.224310956095726" y="4.14884595245735" width="171.56769778634438" height="82.70032931898318" id="v-2796" fill="none"/>
<circle class="js-number-connector-1 js-link-connector" fill="none" cx="93.9979559895209" cy="0" r="0.1" id="v-2799"/>
<circle class="js-number-connector-2 js-link-connector" fill="none" cx="140.58877959440065" cy="0" r="0.1" id="v-2797"/>
<circle class="js-number-connector-3 js-link-connector" fill="none" cx="187.9959119790418" cy="22.94706939894863" r="0.1" id="v-2800"/>
<circle class="js-number-connector-4 js-link-connector" fill="none" cx="187.9959119790418" cy="45.49901061194894" r="0.1" id="v-2801"/>
<circle class="js-number-connector-5 js-link-connector" fill="none" cx="187.9959119790418" cy="68.05095182494925" r="0.1" id="v-2802"/>
<circle class="js-number-connector-6 js-link-connector" fill="none" cx="140.58877959440065" cy="90.99802122389788" r="0.1" id="v-2803"/>
<circle class="js-number-connector-7 js-link-connector" fill="none" cx="93.9979559895209" cy="90.99802122389788" r="0.1" id="v-2804"/>
<circle class="js-number-connector-8 js-link-connector" fill="none" cx="47.42754010413516" cy="90.99802122389788" r="0.1" id="v-2805"/>
<circle class="js-number-connector-9 js-link-connector" fill="none" cx="0" cy="68.05095182494925" r="0.1" id="v-2806"/>
<circle class="js-number-connector-10 js-link-connector" fill="none" cx="0" cy="45.49901061194894" r="0.1" id="v-2807"/>
<circle class="js-number-connector-11 js-link-connector" fill="none" cx="0" cy="22.94706939894863" r="0.1" id="v-2808"/>
<circle class="js-number-connector-12 js-link-connector" fill="none" cx="47.42754010413516" cy="0" r="0.1" id="v-2809"/>
</g></g><rect class="ui-number-box" id="v-2789" stroke="none" stroke-width="0" fill="#FFFFFF" x="0" y="0" width="0" height="0" transform="translate(140.48876953125,-0.10000000149011612)"/><path class="ui-number-leadline" id="v-2790" stroke="#000000" fill="none" d=""/><text class="ui-number-label" id="v-2791" font-family="OpenSansCondensedLight" font-size="14pt" fill="black" transform="translate(140.48876953125,-0.10000000149011612)"/><rect class="ui-label-box" id="v-2792" stroke-width="0" fill="none" width="171.5676965713501" height="82.70033597946167" transform="translate(8.224310874938965,4.14884614944458)"/><text class="ui-label" id="v-2793" font-family="OpenSansCondensedLight" font-size="14pt" fill="black" transform="translate(8.224310874938965,4.14884614944458)" text-anchor="middle"><tspan x="85.78385162353516" y="37.15015882080078">VIRTUAL OBJECT</tspan><tspan x="85.78385162353516" y="58.15019632080078">206</tspan></text><path class="ui-number-underline" id="v-2794" stroke="#000000" fill="none" transform="translate(8.224310874938965,4.14884614944458)" d="M 71.78586006164551 60 99.7818431854248 60"/></g><g id="j_152" model-id="eb9c60ad-cd6d-494f-a66b-87630f6c80f0" class="element tp Element" transform="translate(72.49999999999932,730.4881916046132)"><g class="rotatable" id="v-2810"><g class="scalable" id="v-2820">
<path class="ui-fill ui-stroke js-perimeter" d="M511.9888666663266,0H0v101.99778203118224h511.9888666663266V0L511.9888666663266,0z" id="v-2817" stroke="#000000" stroke-dasharray="none" fill="#FFFFFF"/>
<rect class="ui-interior-label" x="22.398123454899" y="4.650354803853293" width="467.24819822664" height="92.69707242347566" id="v-2818" fill="none"/>
<circle class="js-number-connector-1 js-link-connector" fill="none" cx="255.9944333331633" cy="0" r="0.1" id="v-2821"/>
<circle class="js-number-connector-2 js-link-connector" fill="none" cx="382.88008059751667" cy="0" r="0.1" id="v-2822"/>
<circle class="js-number-connector-3 js-link-connector" fill="none" cx="511.9888666663266" cy="25.72089097464572" r="0.1" id="v-2819"/>
<circle class="js-number-connector-4 js-link-connector" fill="none" cx="511.9888666663266" cy="50.99889101559112" r="0.1" id="v-2823"/>
<circle class="js-number-connector-5 js-link-connector" fill="none" cx="511.9888666663266" cy="76.27689105653653" r="0.1" id="v-2824"/>
<circle class="js-number-connector-6 js-link-connector" fill="none" cx="382.88008059751667" cy="101.99778203118224" r="0.1" id="v-2825"/>
<circle class="js-number-connector-7 js-link-connector" fill="none" cx="255.9944333331633" cy="101.99778203118224" r="0.1" id="v-2826"/>
<circle class="js-number-connector-8 js-link-connector" fill="none" cx="129.1643645389213" cy="101.99778203118224" r="0.1" id="v-2827"/>
<circle class="js-number-connector-9 js-link-connector" fill="none" cx="0" cy="76.27689105653653" r="0.1" id="v-2828"/>
<circle class="js-number-connector-10 js-link-connector" fill="none" cx="0" cy="50.99889101559112" r="0.1" id="v-2829"/>
<circle class="js-number-connector-11 js-link-connector" fill="none" cx="0" cy="25.72089097464572" r="0.1" id="v-2830"/>
<circle class="js-number-connector-12 js-link-connector" fill="none" cx="129.1643645389213" cy="0" r="0.1" id="v-2831"/>
</g></g><rect class="ui-number-box" id="v-2811" stroke="none" stroke-width="0" fill="#FFFFFF" x="0" y="0" width="0" height="0" transform="translate(511.88885498046875,25.620891571044922)"/><path class="ui-number-leadline" id="v-2812" stroke="#000000" fill="none" d=""/><text class="ui-number-label" id="v-2813" font-family="OpenSansCondensedLight" font-size="14pt" fill="black" transform="translate(511.8888854980469,25.620893478393555)"/><rect class="ui-label-box" id="v-2814" stroke-width="0" fill="none" width="467.2482089996338" height="92.6970648765564" transform="translate(22.398122787475586,4.650354862213135)"/><text class="ui-label" id="v-2815" font-family="OpenSansCondensedLight" font-size="14pt" fill="black" transform="translate(22.398122787475586,4.650354862213135)" text-anchor="middle"><tspan x="233.6240997314453" y="52.6485448803711">HARDWARE 208</tspan></text><path class="ui-number-underline" id="v-2816" stroke="#000000" fill="none" transform="translate(22.398122787475586,4.650354862213135)" d="M 274.83886337280273 55 302.83484649658203 55"/></g><g id="j_153" model-id="f32f90c4-0f1f-2126-a67d-c0d400e53573" class="element tp Element" transform="translate(265.9999999999993,399.00000000000017)"><g class="rotatable" id="v-2832"><g class="scalable" id="v-2842">
<path class="ui-fill ui-stroke js-perimeter" d="M131.99712968741233,0H0v90.99802122389788h131.99712968741233V0L131.99712968741233,0z" id="v-2839" stroke="#000000" stroke-dasharray="none" fill="#FFFFFF"/>
<rect class="ui-interior-label" x="5.774516203216149" y="4.14884595245735" width="120.46242610530564" height="82.70032931898318" id="v-2840" fill="none"/>
<circle class="js-number-connector-1 js-link-connector" fill="none" cx="65.99856484370616" cy="0" r="0.1" id="v-2843"/>
<circle class="js-number-connector-2 js-link-connector" fill="none" cx="98.71127077904727" cy="0" r="0.1" id="v-2841"/>
<circle class="js-number-connector-3 js-link-connector" fill="none" cx="131.99712968741233" cy="22.94706939894863" r="0.1" id="v-2844"/>
<circle class="js-number-connector-4 js-link-connector" fill="none" cx="131.99712968741233" cy="45.49901061194894" r="0.1" id="v-2845"/>
<circle class="js-number-connector-5 js-link-connector" fill="none" cx="131.99712968741233" cy="68.05095182494925" r="0.1" id="v-2846"/>
<circle class="js-number-connector-6 js-link-connector" fill="none" cx="98.71127077904727" cy="90.99802122389788" r="0.1" id="v-2847"/>
<circle class="js-number-connector-7 js-link-connector" fill="none" cx="65.99856484370616" cy="90.99802122389788" r="0.1" id="v-2848"/>
<circle class="js-number-connector-8 js-link-connector" fill="none" cx="33.300187732690645" cy="90.99802122389788" r="0.1" id="v-2849"/>
<circle class="js-number-connector-9 js-link-connector" fill="none" cx="0" cy="68.05095182494925" r="0.1" id="v-2850"/>
<circle class="js-number-connector-10 js-link-connector" fill="none" cx="0" cy="45.49901061194894" r="0.1" id="v-2851"/>
<circle class="js-number-connector-11 js-link-connector" fill="none" cx="0" cy="22.94706939894863" r="0.1" id="v-2852"/>
<circle class="js-number-connector-12 js-link-connector" fill="none" cx="33.300187732690645" cy="0" r="0.1" id="v-2853"/>
</g></g><rect class="ui-number-box" id="v-2833" stroke="none" stroke-width="0" fill="#FFFFFF" x="0" y="0" width="0" height="0" transform="translate(98.61127471923828,-0.10000000149011612)"/><path class="ui-number-leadline" id="v-2834" stroke="#000000" fill="none" d=""/><text class="ui-number-label" id="v-2835" font-family="OpenSansCondensedLight" font-size="14pt" fill="black" transform="translate(98.61127471923828,-0.10000000149011612)"/><rect class="ui-label-box" id="v-2836" stroke-width="0" fill="none" width="120.46242237091064" height="82.70033597946167" transform="translate(5.7745161056518555,4.14884614944458)"/><text class="ui-label" id="v-2837" font-family="OpenSansCondensedLight" font-size="14pt" fill="black" transform="translate(5.774516582489014,4.14884614944458)" text-anchor="middle"><tspan x="60.2312126159668" y="26.650140070800784">VIRTUAL</tspan><tspan x="60.2312126159668" y="47.65017757080078">SURFACE</tspan><tspan x="60.2312126159668" y="68.65021507080078">210</tspan></text><path class="ui-number-underline" id="v-2838" stroke="#000000" fill="none" transform="translate(5.774516582489014,4.14884614944458)" d="M 46.23322105407715 71 74.22920417785645 71"/></g><g id="j_154" model-id="81e2cb1e-9e9f-da33-df8d-d89d3ef68d4c" class="element tp Element" transform="translate(409.9999999999993,399)"><g class="rotatable" id="v-2854"><g class="scalable" id="v-2864">
<path class="ui-fill ui-stroke js-perimeter" d="M167.99634687488842,0H0v90.99802122389788h167.99634687488842V0L167.99634687488842,0z" id="v-2861" stroke="#000000" stroke-dasharray="none" fill="#FFFFFF"/>
<rect class="ui-interior-label" x="7.349384258638734" y="4.14884595245735" width="153.31581504311626" height="82.70032931898318" id="v-2862" fill="none"/>
<circle class="js-number-connector-1 js-link-connector" fill="none" cx="83.99817343744421" cy="0" r="0.1" id="v-2865"/>
<circle class="js-number-connector-2 js-link-connector" fill="none" cx="125.63252644606015" cy="0" r="0.1" id="v-2863"/>
<circle class="js-number-connector-3 js-link-connector" fill="none" cx="167.99634687488842" cy="22.94706939894863" r="0.1" id="v-2866"/>
<circle class="js-number-connector-4 js-link-connector" fill="none" cx="167.99634687488842" cy="45.49901061194894" r="0.1" id="v-2867"/>
<circle class="js-number-connector-5 js-link-connector" fill="none" cx="167.99634687488842" cy="68.05095182494925" r="0.1" id="v-2868"/>
<circle class="js-number-connector-6 js-link-connector" fill="none" cx="125.63252644606015" cy="90.99802122389788" r="0.1" id="v-2869"/>
<circle class="js-number-connector-7 js-link-connector" fill="none" cx="83.99817343744421" cy="90.99802122389788" r="0.1" id="v-2870"/>
<circle class="js-number-connector-8 js-link-connector" fill="none" cx="42.38205711433355" cy="90.99802122389788" r="0.1" id="v-2871"/>
<circle class="js-number-connector-9 js-link-connector" fill="none" cx="0" cy="68.05095182494925" r="0.1" id="v-2872"/>
<circle class="js-number-connector-10 js-link-connector" fill="none" cx="0" cy="45.49901061194894" r="0.1" id="v-2873"/>
<circle class="js-number-connector-11 js-link-connector" fill="none" cx="0" cy="22.94706939894863" r="0.1" id="v-2874"/>
<circle class="js-number-connector-12 js-link-connector" fill="none" cx="42.38205711433355" cy="0" r="0.1" id="v-2875"/>
</g></g><rect class="ui-number-box" id="v-2855" stroke="none" stroke-width="0" fill="#FFFFFF" x="0" y="0" width="0" height="0" transform="translate(125.53253173828125,-0.10000000149011612)"/><path class="ui-number-leadline" id="v-2856" stroke="#000000" fill="none" d=""/><text class="ui-number-label" id="v-2857" font-family="OpenSansCondensedLight" font-size="14pt" fill="black" transform="translate(125.53253173828125,-0.10000000149011612)"/><rect class="ui-label-box" id="v-2858" stroke-width="0" fill="none" width="153.31582260131836" height="82.70033597946167" transform="translate(7.349384307861328,4.14884614944458)"/><text class="ui-label" id="v-2859" font-family="OpenSansCondensedLight" font-size="14pt" fill="black" transform="translate(7.349384307861328,4.14884614944458)" text-anchor="middle"><tspan x="76.65791320800781" y="37.15015882080078">APPLICATION</tspan><tspan x="76.65791320800781" y="58.15019632080078">212</tspan></text><path class="ui-number-underline" id="v-2860" stroke="#000000" fill="none" transform="translate(7.349384307861328,4.14884614944458)" d="M 62.659921646118164 60 90.65590476989746 60"/></g><g id="j_159" model-id="42154ff9-d8e7-47b6-a216-d986b3621eb6" class="tp Link link"><path class="connection" stroke="black" id="v-2944" stroke-dasharray="none" d="M 330 722 330 661"/><path class="marker-source" fill="black" stroke="black" id="v-2945" d="M 8 0 L 0 4 L 8 8 z" transform="translate(326,730) scale(1,1) rotate(-90)"/><path class="marker-target" fill="black" stroke="black" id="v-2946" d="M 8 0 L 0 4 L 8 8 z" transform="translate(334,653) scale(1,1) rotate(-270)"/><g class="labels" id="v-2948"><g class="js-link-label" id="v-2956" label-idx="0" cursor="move" transform="translate(330, 691.5)"><rect fill="white" rx="3" ry="3" x="-58.84375" y="-11.4609375" width="117.6875" height="20.796875"/><text class="ui-link-label" text-anchor="start" font-size="14pt" font-family="OpenSansCondensedLight" id="v-2957" y="0.8em" display="null" xml:space="preserve" transform="translate(0,-10.3984375)"><tspan x="-49.51175498962402" y="0.8em">OS ACTION</tspan></text></g></g></g><g id="j_157" model-id="c36c7e63-ab31-4a73-a76a-0ebbe3d2c087" class="tp Link link"><path class="connection" stroke="black" id="v-2916" stroke-dasharray="none" d="M 452 548 452 498"/><path class="marker-source" fill="black" stroke="black" id="v-2917" d="M 8 0 L 0 4 L 8 8 z" transform="translate(448,556) scale(1,1) rotate(-90)"/><path class="marker-target" fill="black" stroke="black" id="v-2918" d="M 8 0 L 0 4 L 8 8 z" transform="translate(456,490) scale(1,1) rotate(-270)"/><g class="labels" id="v-2920"><g class="js-link-label" id="v-2928" label-idx="0" cursor="move" transform="translate(452, 523)"><rect fill="white" rx="3" ry="3" x="-44.578125" y="-11.4609375" width="89.15625" height="20.796875"/><text class="ui-link-label" text-anchor="start" font-size="14pt" font-family="OpenSansCondensedLight" id="v-2929" y="0.8em" display="null" xml:space="preserve" transform="translate(0,-10.3984375)"><tspan x="-35.24612998962402" y="0.8em">ACTION</tspan></text></g></g></g><g id="j_164" model-id="6bfe259a-2f54-4881-ac0b-4f79c6892067" class="tp Link link"><path class="connection" stroke="black" id="v-3014" stroke-dasharray="none" d="M 332 548 332 498"/><path class="marker-source" fill="black" stroke="black" id="v-3015" d="M 8 0 L 0 4 L 8 8 z" transform="translate(328,556) scale(1,1) rotate(-90)"/><path class="marker-target" fill="black" stroke="black" id="v-3016" d="M 8 0 L 0 4 L 8 8 z" transform="translate(336,490) scale(1,1) rotate(-270)"/><g class="labels" id="v-3018"><g class="js-link-label" id="v-3026" label-idx="0" cursor="move" transform="translate(332, 523)"><rect fill="white" rx="3" ry="3" x="-44.578125" y="-11.4609375" width="89.15625" height="20.796875"/><text class="ui-link-label" text-anchor="start" font-size="14pt" font-family="OpenSansCondensedLight" id="v-3027" y="0.8em" display="null" xml:space="preserve" transform="translate(0,-10.3984375)"><tspan x="-35.24612998962402" y="0.8em">ACTION</tspan></text></g></g></g><g id="j_163" model-id="52c06dfe-9987-4b81-984c-c82addade69a" class="tp Link link"><path class="connection" stroke="black" id="v-3000" stroke-dasharray="none" d="M 209 548 209 498"/><path class="marker-source" fill="black" stroke="black" id="v-3001" d="M 8 0 L 0 4 L 8 8 z" transform="translate(205,556) scale(1,1) rotate(-90)"/><path class="marker-target" fill="black" stroke="black" id="v-3002" d="M 8 0 L 0 4 L 8 8 z" transform="translate(213,490) scale(1,1) rotate(-270)"/><g class="labels" id="v-3004"><g class="js-link-label" id="v-3012" label-idx="0" cursor="move" transform="translate(209, 523)"><rect fill="white" rx="3" ry="3" x="-44.578125" y="-11.4609375" width="89.15625" height="20.796875"/><text class="ui-link-label" text-anchor="start" font-size="14pt" font-family="OpenSansCondensedLight" id="v-3013" y="0.8em" display="null" xml:space="preserve" transform="translate(0,-10.3984375)"><tspan x="-35.24612998962402" y="0.8em">ACTION</tspan></text></g></g></g><g id="j_162" model-id="1bb70a26-6977-4fd2-b704-d07cf68bfa46" class="tp Link link"><path class="connection" stroke="black" id="v-2986" stroke-dasharray="none" d="M 328 391 328 344"/><path class="marker-source" fill="black" stroke="black" id="v-2987" d="M 8 0 L 0 4 L 8 8 z" transform="translate(324,399) scale(1,1) rotate(-90)"/><path class="marker-target" fill="black" stroke="black" id="v-2988" d="M 8 0 L 0 4 L 8 8 z" transform="translate(332,336) scale(1,1) rotate(-270)"/><g class="labels" id="v-2990"><g class="js-link-label" id="v-2998" label-idx="0" cursor="move" transform="translate(328, 367.5)"><rect fill="white" rx="3" ry="3" x="-72.046875" y="-11.4609375" width="144.09375" height="20.796875"/><text class="ui-link-label" text-anchor="start" font-size="14pt" font-family="OpenSansCondensedLight" id="v-2999" y="0.8em" display="null" xml:space="preserve" transform="translate(0,-10.3984375)"><tspan x="-62.71487998962402" y="0.8em">INTERACTION</tspan></text></g></g></g><g id="j_161" model-id="b96a42d6-f797-4572-a824-ed94a2016506" class="tp Link link"><path class="connection" stroke="black" id="v-2972" stroke-dasharray="none" d="M 455 391 455 344"/><path class="marker-source" fill="black" stroke="black" id="v-2973" d="M 8 0 L 0 4 L 8 8 z" transform="translate(451,399) scale(1,1) rotate(-90)"/><path class="marker-target" fill="black" stroke="black" id="v-2974" d="M 8 0 L 0 4 L 8 8 z" transform="translate(459,336) scale(1,1) rotate(-270)"/><g class="labels" id="v-2976"><g class="js-link-label" id="v-2984" label-idx="0" cursor="move" transform="translate(455, 367.5)"><rect fill="white" rx="3" ry="3" x="-72.046875" y="-11.4609375" width="144.09375" height="20.796875"/><text class="ui-link-label" text-anchor="start" font-size="14pt" font-family="OpenSansCondensedLight" id="v-2985" y="0.8em" display="null" xml:space="preserve" transform="translate(0,-10.3984375)"><tspan x="-62.71487998962402" y="0.8em">INTERACTION</tspan></text></g></g></g><g id="j_160" model-id="e4ff7944-ee74-4eb4-832d-c12b0beeea34" class="tp Link link"><path class="connection" stroke="black" id="v-2958" stroke-dasharray="none" d="M 202 389 202 344"/><path class="marker-source" fill="black" stroke="black" id="v-2959" d="M 8 0 L 0 4 L 8 8 z" transform="translate(198,397) scale(1,1) rotate(-90)"/><path class="marker-target" fill="black" stroke="black" id="v-2960" d="M 8 0 L 0 4 L 8 8 z" transform="translate(206,336) scale(1,1) rotate(-270)"/><g class="labels" id="v-2962"><g class="js-link-label" id="v-2970" label-idx="0" cursor="move" transform="translate(202, 366.5)"><rect fill="white" rx="3" ry="3" x="-72.046875" y="-11.4609375" width="144.09375" height="20.796875"/><text class="ui-link-label" text-anchor="start" font-size="14pt" font-family="OpenSansCondensedLight" id="v-2971" y="0.8em" display="null" xml:space="preserve" transform="translate(0,-10.3984375)"><tspan x="-62.71487998962402" y="0.8em">INTERACTION</tspan></text></g></g></g><g id="j_155" model-id="ec1db6de-90d9-453f-a1c2-3149dd3ff5d4" class="element tp Element" transform="translate(307.3913379955285,52.34645748138428)"><g class="rotatable" id="v-2876"><g class="scalable" id="v-2885">
<g class="ui-stroke ui-fill" id="v-2883" stroke="#000000" stroke-dasharray="none" fill="#FFFFFF">
    <g id="v-2886">
        <g id="v-2887">
            <path d="M9.320599904726562,108.54626319836683C9.320599904726562,111.71428009662947,10.818553460843333,113.38165741150453,13.980899857089845,113.38165741150453s4.660299952363281,-1.6673773148750666,4.660299952363281,-4.835394213137693V64.19402662269006h4.826739236376255v44.18549884418926c0,3.1680168982626262,1.4979535561167692,4.835394213137693,4.660299952363281,4.835394213137693s4.660299952363281,-1.6673773148750666,4.660299952363281,-4.835394213137693V34.01449722345136h2.3301499761816404v27.5117256954386c0,1.6673773148750666,0.499317852038923,2.8345414352876133,1.6643928401297434,3.6682300927251466s2.3301499761816404,0.8336886574375333,3.4952249642724613,0s1.830832124142718,-2.00085277785008,1.830832124142718,-3.6682300927251466V33.01407083452632c0,-3.1680168982626262,-0.998635704077846,-5.835820602062733,-3.1623463962465124,-7.836673379912813s-4.993178520389231,-3.0012791667751197,-8.654842768674666,-3.0012791667751197H11.817189164921178c-3.4952249642724613,0,-6.324692792493025,1.00042638892504,-8.48840348466169,3.0012791667751197S0,29.679316204776185,0,32.847333103038814V61.692960650377465c0,1.5006395833875599,0.6657571360518975,2.5010659723126,1.830832124142718,3.1680168982626262s2.3301499761816404,0.6669509259500267,3.4952249642724613,0s1.6643928401297434,-1.6673773148750666,1.6643928401297434,-3.1680168982626262V34.01449722345136h2.3301499761816404V108.54626319836683L9.320599904726562,108.54626319836683z" id="v-2888"/>
        </g>
        <path d="M10.984992744856307,9.670788426275386c0,2.667803703800107,0.998635704077846,5.0021319446252,2.829467828220564,6.836246990987773s4.160982100324358,2.8345414352876133,6.824010644531947,2.8345414352876133s4.826739236376255,-1.00042638892504,6.657571360518974,-2.8345414352876133s2.66302854420759,-4.168443287187666,2.66302854420759,-6.836246990987773s-0.8321964200648717,-5.0021319446252,-2.66302854420759,-6.836246990987773S23.30149976181641,0,20.63847121760882,0s-4.993178520389231,1.00042638892504,-6.824010644531947,2.8345414352876133S10.984992744856307,7.00298472247528,10.984992744856307,9.670788426275386L10.984992744856307,9.670788426275386z" id="v-2889"/>
    </g>
</g>
<g id="v-2890">
    <g id="v-2891">
        <path class="js-perimeter" d="M9.320599904726562,108.54626319836683C9.320599904726562,111.71428009662947,10.818553460843333,113.38165741150453,13.980899857089845,113.38165741150453s4.660299952363281,-1.6673773148750666,4.660299952363281,-4.835394213137693V64.19402662269006h4.826739236376255v44.18549884418926c0,3.1680168982626262,1.4979535561167692,4.835394213137693,4.660299952363281,4.835394213137693s4.660299952363281,-1.6673773148750666,4.660299952363281,-4.835394213137693V34.01449722345136h2.3301499761816404v27.5117256954386c0,1.6673773148750666,0.499317852038923,2.8345414352876133,1.6643928401297434,3.6682300927251466s2.3301499761816404,0.8336886574375333,3.4952249642724613,0s1.830832124142718,-2.00085277785008,1.830832124142718,-3.6682300927251466V33.01407083452632c0,-3.1680168982626262,-0.998635704077846,-5.835820602062733,-3.1623463962465124,-7.836673379912813s-4.993178520389231,-3.0012791667751197,-8.654842768674666,-3.0012791667751197H11.817189164921178c-3.4952249642724613,0,-6.324692792493025,1.00042638892504,-8.48840348466169,3.0012791667751197S0,29.679316204776185,0,32.847333103038814V61.692960650377465c0,1.5006395833875599,0.6657571360518975,2.5010659723126,1.830832124142718,3.1680168982626262s2.3301499761816404,0.6669509259500267,3.4952249642724613,0s1.6643928401297434,-1.6673773148750666,1.6643928401297434,-3.1680168982626262V34.01449722345136h2.3301499761816404V108.54626319836683L9.320599904726562,108.54626319836683z" id="v-2892"/>
    </g>
    <path class="js-perimeter" d="M10.984992744856307,9.670788426275386c0,2.667803703800107,0.998635704077846,5.0021319446252,2.829467828220564,6.836246990987773s4.160982100324358,2.8345414352876133,6.824010644531947,2.8345414352876133s4.826739236376255,-1.00042638892504,6.657571360518974,-2.8345414352876133s2.66302854420759,-4.168443287187666,2.66302854420759,-6.836246990987773s-0.8321964200648717,-5.0021319446252,-2.66302854420759,-6.836246990987773S23.30149976181641,0,20.63847121760882,0s-4.993178520389231,1.00042638892504,-6.824010644531947,2.8345414352876133S10.984992744856307,7.00298472247528,10.984992744856307,9.670788426275386L10.984992744856307,9.670788426275386z" id="v-2893"/>
</g>
<rect x="1.5603682876216345" y="37.72441174904838" fill="none" width="39.00920719054086" height="36.2654565985327" class="ui-interior-label" id="v-2884"/>
<circle fill="none" cx="20.63847121760882" cy="0" r="0.1" id="v-1550" class="js-number-connector-1 js-link-connector"/>
<circle fill="none" cx="30.063095674843492" cy="9.670788426275386" r="0.1" id="v-1551" class="js-number-connector-2 js-link-connector"/>
<circle fill="none" cx="42.10913885528251" cy="34.181234954938866" r="0.1" id="v-1552" class="js-number-connector-3 js-link-connector"/>
<circle fill="none" cx="42.21316340779062" cy="54.023025001952156" r="0.1" id="v-1553" class="js-number-connector-4 js-link-connector"/>
<circle fill="none" cx="32.788538950555946" cy="72.36417546557789" r="0.1" id="v-1554" class="js-number-connector-5 js-link-connector"/>
<circle fill="none" cx="32.89256350306405" cy="99.04221250357895" r="0.1" id="v-1555" class="js-number-connector-6 js-link-connector"/>
<circle fill="none" cx="28.461117566218615" cy="113.38165741150453" r="0.1" id="v-1556" class="js-number-connector-7 js-link-connector"/>
<circle fill="none" cx="9.320599904726562" cy="98.93800142139926" r="0.1" id="v-1557" class="js-number-connector-8 js-link-connector"/>
<circle fill="none" cx="9.216575352218454" cy="72.46838654775758" r="0.1" id="v-1558" class="js-number-connector-9 js-link-connector"/>
<circle fill="none" cx="0" cy="53.91881391977246" r="0.1" id="v-1559" class="js-number-connector-10 js-link-connector"/>
<circle fill="none" cx="0" cy="33.97281279057948" r="0.1" id="v-1560" class="js-number-connector-11 js-link-connector"/>
<circle fill="none" cx="10.984992744856307" cy="9.566577344095695" r="0.1" id="v-1561" class="js-number-connector-12 js-link-connector"/>
</g></g><rect class="ui-number-box" id="v-2877" stroke="none" stroke-width="0" fill="#FFFFFF" x="0" y="0" width="0" height="0" transform="translate(42.113162994384766,53.92302322387695)"/><path class="ui-number-leadline" id="v-2878" stroke="#000000" fill="none" d=""/><text class="ui-number-label" id="v-2879" font-family="OpenSansCondensedLight" font-size="14pt" fill="black" transform="translate(42.113162994384766,53.92302322387695)"/><rect class="ui-label-box" id="v-2880" stroke-width="0" fill="none" width="127.239491276443" transform="translate(-42.51316146925092,-10.100000001490116)"/><text class="ui-label" id="v-2881" font-family="OpenSansCondensedLight" font-size="14pt" fill="black" transform="translate(-42.513160705566406,-10.100000381469727)" text-anchor="middle"><tspan x="63.61974334716797" y="-4.200007499999998">USER 214</tspan></text><path class="ui-number-underline" id="v-2882" stroke="#000000" fill="none" transform="translate(-42.513160705566406,-10.100000381469727)" d="M 64.42008972167969 -2 92.41607284545898 -2"/></g><g id="j_158" model-id="ef185571-19f5-4d88-8ec6-034d54364b69" class="tp Link link"><path class="connection" stroke="black" id="v-2930" stroke-dasharray="none" d="M 336 229 336 166"/><path class="marker-source" fill="black" stroke="black" id="v-2931" d="M 8 0 L 0 4 L 8 8 z" transform="translate(332,237) scale(1,1) rotate(-90)"/><path class="marker-target" fill="black" stroke="black" id="v-2932" d="" transform="translate(336,166) scale(1,1) rotate(-270)"/><g class="labels" id="v-2934"><g class="js-link-label" id="v-2942" label-idx="0" cursor="move" transform="translate(336, 197.5)"><rect fill="white" rx="3" ry="3" x="-36.796875" y="-11.4609375" width="73.609375" height="20.796875"/><text class="ui-link-label" text-anchor="start" font-size="14pt" font-family="OpenSansCondensedLight" id="v-2943" y="0.8em" display="null" xml:space="preserve" transform="translate(0,-10.3984375)"><tspan x="-27.464879989624023" y="0.8em">INPUT</tspan></text></g></g></g></g><defs id="v-2751"/></svg>