<svg xmlns="http://www.w3.org/2000/svg" xmlns:xlink="http://www.w3.org/1999/xlink" version="1.1" id="v-3860" width="664" height="867"><g id="v-3861" class="viewport"><g id="j_205" model-id="485f2f9a-a415-4c1e-1608-bc617dbde909" class="element tp Element" transform="translate(596.9972915649414,14.3125)"><polygon class="ui-arrowhead" fill="#000000" points="0,0 4.2,11.2 11.8,2" id="v-3863" transform="translate(-5.900000095367432,27.34645652770996)"/>
<rect class="ui-label-anchor" fill="none" width="1" height="1" id="v-3865" transform="translate(33.346458435058594,-0.5)"/>
<g class="rotatable" id="v-3867"><g class="scalable" id="v-3875">
<rect x="0" y="0" width="28.346457481384277" height="28.346456915242126" opacity="0" id="v-3876"/>
<path class="ui-stem" fill="none" stroke="#000000" stroke-width="1" d="M28.346457481384277,0C16.68079997942998,2.22616153784624,6.9775895338792076,13.35696922707744,0,28.346456915242126" id="v-3874"/>
</g></g><rect class="ui-number-box" id="v-3868" stroke="none" stroke-width="0" fill="#FFFFFF" x="0" y="0" width="0" height="0"/><path class="ui-number-leadline" id="v-3869" stroke="#000000" fill="none"/><text class="ui-number-label" id="v-3870" font-family="OpenSansCondensedLight" font-size="14pt" fill="black" transform="translate(0,0)"/><rect class="ui-label-box" id="v-3871" stroke-width="0" fill="none" width="1" height="1" transform="translate(33.34646224975586,-0.5)"/><text class="ui-label" id="v-3872" font-family="OpenSansCondensedLight" font-size="14pt" fill="black" text-decoration="none" transform="translate(33.34646224975586,-0.5)"><tspan x="0" y="6.800011250000001">500</tspan></text><path class="ui-number-underline" id="v-3873" stroke="#000000" fill="none" transform="translate(33.34646224975586,-0.5)"/></g><g id="j_213" model-id="70b4d416-4475-a29f-6d27-bd7f449983e0" class="element tp Element" transform="translate(251,42.65895748138428)"><g class="rotatable" id="v-4031"><g class="scalable" id="v-4041">
<path class="ui-fill ui-stroke js-perimeter" d="M98.9890234373331,0H0v98.9890234373331h98.9890234373331V0L98.9890234373331,0z" id="v-4038" stroke="#000000" stroke-dasharray="none" fill="#FFFFFF"/>
<rect class="ui-interior-label" x="4.330501133873777" y="4.513177360364731" width="90.33876682996737" height="89.96266871660363" id="v-4039" fill="none"/>
<circle class="js-number-connector-1 js-link-connector" fill="none" cx="49.49451171866655" cy="0" r="0.1" id="v-4042"/>
<circle class="js-number-connector-2 js-link-connector" fill="none" cx="74.0268543703634" cy="0" r="0.1" id="v-4043"/>
<circle class="js-number-connector-3 js-link-connector" fill="none" cx="98.9890234373331" cy="24.96216906696969" r="0.1" id="v-4044"/>
<circle class="js-number-connector-4 js-link-connector" fill="none" cx="98.9890234373331" cy="49.49451171866655" r="0.1" id="v-4045"/>
<circle class="js-number-connector-5 js-link-connector" fill="none" cx="98.9890234373331" cy="74.0268543703634" r="0.1" id="v-4046"/>
<circle class="js-number-connector-6 js-link-connector" fill="none" cx="74.0268543703634" cy="98.9890234373331" r="0.1" id="v-4047"/>
<circle class="js-number-connector-7 js-link-connector" fill="none" cx="49.49451171866655" cy="98.9890234373331" r="0.1" id="v-4048"/>
<circle class="js-number-connector-8 js-link-connector" fill="none" cx="24.97291472735151" cy="98.9890234373331" r="0.1" id="v-4049"/>
<circle class="js-number-connector-9 js-link-connector" fill="none" cx="0" cy="74.0268543703634" r="0.1" id="v-4050"/>
<circle class="js-number-connector-10 js-link-connector" fill="none" cx="0" cy="49.49451171866655" r="0.1" id="v-4051"/>
<circle class="js-number-connector-11 js-link-connector" fill="none" cx="0" cy="24.96216906696969" r="0.1" id="v-4040"/>
<circle class="js-number-connector-12 js-link-connector" fill="none" cx="24.97291472735151" cy="0" r="0.1" id="v-4052"/>
</g></g><rect class="ui-number-box" id="v-4032" stroke="none" stroke-width="0" fill="#FFFFFF" x="0" y="0" width="0" height="0" transform="translate(-0.10000000149011612,24.86216926574707)"/><path class="ui-number-leadline" id="v-4033" stroke="#000000" fill="none" d=""/><text class="ui-number-label" id="v-4034" font-family="OpenSansCondensedLight" font-size="14pt" fill="black" transform="translate(-0.10000000149011612,24.86216926574707)"/><rect class="ui-label-box" id="v-4035" stroke-width="0" fill="none" width="90.33876466751099" height="89.96266794204712" transform="translate(4.330501079559326,4.513177394866943)"/><text class="ui-label" id="v-4036" font-family="OpenSansCondensedLight" font-size="14pt" fill="black" transform="translate(4.330501079559326,4.513177394866943)" text-anchor="middle"><tspan x="45.16938018798828" y="30.2813084362793">PROCESSING</tspan><tspan x="45.16938018798828" y="51.2813459362793">UNITS</tspan><tspan x="45.16938018798828" y="72.2813834362793">502</tspan></text><path class="ui-number-underline" id="v-4037" stroke="#000000" fill="none" transform="translate(4.330501079559326,4.513177394866943)" d="M 31.171388626098633 74 59.16737174987793 74"/></g><g id="j_206" model-id="e22f4e7f-b2cc-b140-dab0-486368b44942" class="element tp Element" transform="translate(44,282.51180839538574)"><g class="rotatable" id="v-3877"><g class="scalable" id="v-3887">
<path class="ui-fill ui-stroke js-perimeter" d="M94.48613697851009,0H0v94.48613697851009h94.48613697851009V0L94.48613697851009,0z" id="v-3884" stroke="#000000" stroke-dasharray="none" fill="#FFFFFF"/>
<rect class="ui-interior-label" x="4.133512071465432" y="4.307878585646357" width="86.22936968935457" height="85.87037980721738" id="v-3885" fill="none"/>
<circle class="js-number-connector-1 js-link-connector" fill="none" cx="47.243068489255045" cy="0" r="0.1" id="v-3886"/>
<circle class="js-number-connector-2 js-link-connector" fill="none" cx="70.6594656583756" cy="0" r="0.1" id="v-3888"/>
<circle class="js-number-connector-3 js-link-connector" fill="none" cx="94.48613697851009" cy="23.82667132013449" r="0.1" id="v-3889"/>
<circle class="js-number-connector-4 js-link-connector" fill="none" cx="94.48613697851009" cy="47.243068489255045" r="0.1" id="v-3890"/>
<circle class="js-number-connector-5 js-link-connector" fill="none" cx="94.48613697851009" cy="70.6594656583756" r="0.1" id="v-3891"/>
<circle class="js-number-connector-6 js-link-connector" fill="none" cx="70.6594656583756" cy="94.48613697851009" r="0.1" id="v-3892"/>
<circle class="js-number-connector-7 js-link-connector" fill="none" cx="47.243068489255045" cy="94.48613697851009" r="0.1" id="v-3893"/>
<circle class="js-number-connector-8 js-link-connector" fill="none" cx="23.83692817390984" cy="94.48613697851009" r="0.1" id="v-3894"/>
<circle class="js-number-connector-9 js-link-connector" fill="none" cx="0" cy="70.6594656583756" r="0.1" id="v-3895"/>
<circle class="js-number-connector-10 js-link-connector" fill="none" cx="0" cy="47.243068489255045" r="0.1" id="v-3896"/>
<circle class="js-number-connector-11 js-link-connector" fill="none" cx="0" cy="23.82667132013449" r="0.1" id="v-3897"/>
<circle class="js-number-connector-12 js-link-connector" fill="none" cx="23.83692817390984" cy="0" r="0.1" id="v-3898"/>
</g></g><rect class="ui-number-box" id="v-3878" stroke="none" stroke-width="0" fill="#FFFFFF" x="0" y="0" width="0" height="0" transform="translate(47.143070220947266,-0.10000000149011612)"/><path class="ui-number-leadline" id="v-3879" stroke="#000000" fill="none" d=""/><text class="ui-number-label" id="v-3880" font-family="OpenSansCondensedLight" font-size="14pt" fill="black" transform="translate(47.143070220947266,-0.10000000149011612)"/><rect class="ui-label-box" id="v-3881" stroke-width="0" fill="none" width="86.22937250137329" height="85.87037467956543" transform="translate(4.133512020111084,4.307878494262695)"/><text class="ui-label" id="v-3882" font-family="OpenSansCondensedLight" font-size="14pt" fill="black" transform="translate(4.133512020111084,4.307878494262695)" text-anchor="middle"><tspan x="43.11468505859375" y="28.235162043457034">INPUT</tspan><tspan x="43.11468505859375" y="49.235199543457036">DEVICES</tspan><tspan x="43.11468505859375" y="70.23523704345703">504</tspan></text><path class="ui-number-underline" id="v-3883" stroke="#000000" fill="none" transform="translate(4.133512020111084,4.307878494262695)" d="M 29.1166934967041 72 57.1126766204834 72"/></g><g id="j_207" model-id="b4cf8a72-daba-fe02-ed08-4f517c04778a" class="element tp Element" transform="translate(205.48819160461358,200.00000000000023)"><g class="rotatable" id="v-3899"><g class="scalable" id="v-3909">
<path class="ui-fill ui-stroke js-perimeter" d="M239.9947812498406,0H0v302.99341132792375h239.9947812498406V0L239.9947812498406,0z" id="v-3906" stroke="#000000" stroke-dasharray="none" fill="#FFFFFF"/>
<rect class="ui-interior-label" x="10.499120369483906" y="13.814289270270079" width="219.0225929187375" height="275.3648327873836" id="v-3907" fill="none"/>
<circle class="js-number-connector-1 js-link-connector" fill="none" cx="119.9973906249203" cy="0" r="0.1" id="v-3910"/>
<circle class="js-number-connector-2 js-link-connector" fill="none" cx="179.47503778008596" cy="0" r="0.1" id="v-3911"/>
<circle class="js-number-connector-3 js-link-connector" fill="none" cx="239.9947812498406" cy="76.40617613056523" r="0.1" id="v-3912"/>
<circle class="js-number-connector-4 js-link-connector" fill="none" cx="239.9947812498406" cy="151.49670566396188" r="0.1" id="v-3913"/>
<circle class="js-number-connector-5 js-link-connector" fill="none" cx="239.9947812498406" cy="226.5872351973585" r="0.1" id="v-3914"/>
<circle class="js-number-connector-6 js-link-connector" fill="none" cx="179.47503778008596" cy="302.99341132792375" r="0.1" id="v-3915"/>
<circle class="js-number-connector-7 js-link-connector" fill="none" cx="119.9973906249203" cy="302.99341132792375" r="0.1" id="v-3916"/>
<circle class="js-number-connector-8 js-link-connector" fill="none" cx="60.54579587761936" cy="302.99341132792375" r="0.1" id="v-3917"/>
<circle class="js-number-connector-9 js-link-connector" fill="none" cx="0" cy="226.5872351973585" r="0.1" id="v-3918"/>
<circle class="js-number-connector-10 js-link-connector" fill="none" cx="0" cy="151.49670566396188" r="0.1" id="v-3919"/>
<circle class="js-number-connector-11 js-link-connector" fill="none" cx="0" cy="76.40617613056523" r="0.1" id="v-3908"/>
<circle class="js-number-connector-12 js-link-connector" fill="none" cx="60.54579587761936" cy="0" r="0.1" id="v-3920"/>
</g></g><rect class="ui-number-box" id="v-3900" stroke="none" stroke-width="0" fill="#FFFFFF" x="0" y="0" width="0" height="0" transform="translate(-0.10000000149011612,76.3061752319336)"/><path class="ui-number-leadline" id="v-3901" stroke="#000000" fill="none" d=""/><text class="ui-number-label" id="v-3902" font-family="OpenSansCondensedLight" font-size="14pt" fill="black" transform="translate(-0.10000000149011612,76.3061752319336)"/><rect class="ui-label-box" id="v-3903" stroke-width="0" fill="none" width="219.0225772857666" height="275.36484813690186" transform="translate(10.499120712280273,13.814290046691895)"/><text class="ui-label" id="v-3904" font-family="OpenSansCondensedLight" font-size="14pt" fill="black" transform="translate(10.49912166595459,13.814290046691895)" text-anchor="middle"><tspan x="109.51129150390625" y="143.9824300732422">MEMORY 506</tspan></text><path class="ui-number-underline" id="v-3905" stroke="#000000" fill="none" transform="translate(10.49912166595459,13.814290046691895)" d="M 139.3344612121582 146 167.3304443359375 146"/></g><g id="j_208" model-id="75204edb-e453-e35b-d1ea-6d18aa1090e3" class="element tp Element" transform="translate(552.5118083953857,234)"><g class="rotatable" id="v-3921"><g class="scalable" id="v-3931">
<path class="ui-fill ui-stroke js-perimeter" d="M94.48613697851009,0H0v94.48613697851009h94.48613697851009V0L94.48613697851009,0z" id="v-3928" stroke="#000000" stroke-dasharray="none" fill="#FFFFFF"/>
<rect class="ui-interior-label" x="4.133512071465432" y="4.307878585646357" width="86.22936968935457" height="85.87037980721738" id="v-3929" fill="none"/>
<circle class="js-number-connector-1 js-link-connector" fill="none" cx="47.243068489255045" cy="0" r="0.1" id="v-3932"/>
<circle class="js-number-connector-2 js-link-connector" fill="none" cx="70.6594656583756" cy="0" r="0.1" id="v-3933"/>
<circle class="js-number-connector-3 js-link-connector" fill="none" cx="94.48613697851009" cy="23.82667132013449" r="0.1" id="v-3934"/>
<circle class="js-number-connector-4 js-link-connector" fill="none" cx="94.48613697851009" cy="47.243068489255045" r="0.1" id="v-3935"/>
<circle class="js-number-connector-5 js-link-connector" fill="none" cx="94.48613697851009" cy="70.6594656583756" r="0.1" id="v-3936"/>
<circle class="js-number-connector-6 js-link-connector" fill="none" cx="70.6594656583756" cy="94.48613697851009" r="0.1" id="v-3937"/>
<circle class="js-number-connector-7 js-link-connector" fill="none" cx="47.243068489255045" cy="94.48613697851009" r="0.1" id="v-3938"/>
<circle class="js-number-connector-8 js-link-connector" fill="none" cx="23.83692817390984" cy="94.48613697851009" r="0.1" id="v-3939"/>
<circle class="js-number-connector-9 js-link-connector" fill="none" cx="0" cy="70.6594656583756" r="0.1" id="v-3940"/>
<circle class="js-number-connector-10 js-link-connector" fill="none" cx="0" cy="47.243068489255045" r="0.1" id="v-3941"/>
<circle class="js-number-connector-11 js-link-connector" fill="none" cx="0" cy="23.82667132013449" r="0.1" id="v-3942"/>
<circle class="js-number-connector-12 js-link-connector" fill="none" cx="23.83692817390984" cy="0" r="0.1" id="v-3930"/>
</g></g><rect class="ui-number-box" id="v-3922" stroke="none" stroke-width="0" fill="#FFFFFF" x="0" y="0" width="0" height="0" transform="translate(23.736927032470703,-0.10000000149011612)"/><path class="ui-number-leadline" id="v-3923" stroke="#000000" fill="none" d=""/><text class="ui-number-label" id="v-3924" font-family="OpenSansCondensedLight" font-size="14pt" fill="black" transform="translate(23.736927032470703,-0.10000000149011612)"/><rect class="ui-label-box" id="v-3925" stroke-width="0" fill="none" width="86.22937250137329" height="85.87037467956543" transform="translate(4.133512020111084,4.307878494262695)"/><text class="ui-label" id="v-3926" font-family="OpenSansCondensedLight" font-size="14pt" fill="black" transform="translate(4.133512020111084,4.307878494262695)" text-anchor="middle"><tspan x="43.11468505859375" y="28.235162043457034">OUTPUT</tspan><tspan x="43.11468505859375" y="49.235199543457036">DEVICES</tspan><tspan x="43.11468505859375" y="70.23523704345703">508</tspan></text><path class="ui-number-underline" id="v-3927" stroke="#000000" fill="none" transform="translate(4.133512020111084,4.307878494262695)" d="M 29.1166934967041 72 57.1126766204834 72"/></g><g id="j_209" model-id="715fdca8-df60-77f4-804c-09a8397c9df0" class="element tp Element" transform="translate(251,610)"><g class="rotatable" id="v-3943"><g class="scalable" id="v-3953">
<path class="ui-fill ui-stroke js-perimeter" d="M94.48613697851009,0H0v94.48613697851009h94.48613697851009V0L94.48613697851009,0z" id="v-3950" stroke="#000000" stroke-dasharray="none" fill="#FFFFFF"/>
<rect class="ui-interior-label" x="4.133512071465432" y="4.307878585646357" width="86.22936968935457" height="85.87037980721738" id="v-3951" fill="none"/>
<circle class="js-number-connector-1 js-link-connector" fill="none" cx="47.243068489255045" cy="0" r="0.1" id="v-3954"/>
<circle class="js-number-connector-2 js-link-connector" fill="none" cx="70.6594656583756" cy="0" r="0.1" id="v-3955"/>
<circle class="js-number-connector-3 js-link-connector" fill="none" cx="94.48613697851009" cy="23.82667132013449" r="0.1" id="v-3956"/>
<circle class="js-number-connector-4 js-link-connector" fill="none" cx="94.48613697851009" cy="47.243068489255045" r="0.1" id="v-3957"/>
<circle class="js-number-connector-5 js-link-connector" fill="none" cx="94.48613697851009" cy="70.6594656583756" r="0.1" id="v-3958"/>
<circle class="js-number-connector-6 js-link-connector" fill="none" cx="70.6594656583756" cy="94.48613697851009" r="0.1" id="v-3959"/>
<circle class="js-number-connector-7 js-link-connector" fill="none" cx="47.243068489255045" cy="94.48613697851009" r="0.1" id="v-3952"/>
<circle class="js-number-connector-8 js-link-connector" fill="none" cx="23.83692817390984" cy="94.48613697851009" r="0.1" id="v-3960"/>
<circle class="js-number-connector-9 js-link-connector" fill="none" cx="0" cy="70.6594656583756" r="0.1" id="v-3961"/>
<circle class="js-number-connector-10 js-link-connector" fill="none" cx="0" cy="47.243068489255045" r="0.1" id="v-3962"/>
<circle class="js-number-connector-11 js-link-connector" fill="none" cx="0" cy="23.82667132013449" r="0.1" id="v-3963"/>
<circle class="js-number-connector-12 js-link-connector" fill="none" cx="23.83692817390984" cy="0" r="0.1" id="v-3964"/>
</g></g><rect class="ui-number-box" id="v-3944" stroke="none" stroke-width="0" fill="#FFFFFF" x="0" y="0" width="0" height="0" transform="translate(47.143070220947266,94.38613891601562)"/><path class="ui-number-leadline" id="v-3945" stroke="#000000" fill="none" d=""/><text class="ui-number-label" id="v-3946" font-family="OpenSansCondensedLight" font-size="14pt" fill="black" transform="translate(47.143070220947266,94.38613891601562)"/><rect class="ui-label-box" id="v-3947" stroke-width="0" fill="none" width="86.22937250137329" height="85.87037467956543" transform="translate(4.133512020111084,4.307878494262695)"/><text class="ui-label" id="v-3948" font-family="OpenSansCondensedLight" font-size="14pt" fill="black" transform="translate(4.133512020111084,4.307878494262695)" text-anchor="middle"><tspan x="43.11468505859375" y="28.235162043457034">STORAGE</tspan><tspan x="43.11468505859375" y="49.235199543457036">DEVICES</tspan><tspan x="43.11468505859375" y="70.23523704345703">510</tspan></text><path class="ui-number-underline" id="v-3949" stroke="#000000" fill="none" transform="translate(4.133512020111084,4.307878494262695)" d="M 29.1166934967041 72 57.1126766204834 72"/></g><g id="j_210" model-id="1834cb8e-51ac-57e8-4c28-c15f25c54dd9" class="element tp Element" transform="translate(530.8555574417114,377)"><g class="rotatable" id="v-3965"><g class="scalable" id="v-3975">
<path class="ui-fill ui-stroke js-perimeter" d="M94.48613697851009,0H0v94.48613697851009h94.48613697851009V0L94.48613697851009,0z" id="v-3972" stroke="#000000" stroke-dasharray="none" fill="#FFFFFF"/>
<rect class="ui-interior-label" x="4.133512071465432" y="4.307878585646357" width="86.22936968935457" height="85.87037980721738" id="v-3973" fill="none"/>
<circle class="js-number-connector-1 js-link-connector" fill="none" cx="47.243068489255045" cy="0" r="0.1" id="v-3976"/>
<circle class="js-number-connector-2 js-link-connector" fill="none" cx="70.6594656583756" cy="0" r="0.1" id="v-3977"/>
<circle class="js-number-connector-3 js-link-connector" fill="none" cx="94.48613697851009" cy="23.82667132013449" r="0.1" id="v-3978"/>
<circle class="js-number-connector-4 js-link-connector" fill="none" cx="94.48613697851009" cy="47.243068489255045" r="0.1" id="v-3979"/>
<circle class="js-number-connector-5 js-link-connector" fill="none" cx="94.48613697851009" cy="70.6594656583756" r="0.1" id="v-3980"/>
<circle class="js-number-connector-6 js-link-connector" fill="none" cx="70.6594656583756" cy="94.48613697851009" r="0.1" id="v-3981"/>
<circle class="js-number-connector-7 js-link-connector" fill="none" cx="47.243068489255045" cy="94.48613697851009" r="0.1" id="v-3974"/>
<circle class="js-number-connector-8 js-link-connector" fill="none" cx="23.83692817390984" cy="94.48613697851009" r="0.1" id="v-3982"/>
<circle class="js-number-connector-9 js-link-connector" fill="none" cx="0" cy="70.6594656583756" r="0.1" id="v-3983"/>
<circle class="js-number-connector-10 js-link-connector" fill="none" cx="0" cy="47.243068489255045" r="0.1" id="v-3984"/>
<circle class="js-number-connector-11 js-link-connector" fill="none" cx="0" cy="23.82667132013449" r="0.1" id="v-3985"/>
<circle class="js-number-connector-12 js-link-connector" fill="none" cx="23.83692817390984" cy="0" r="0.1" id="v-3986"/>
</g></g><rect class="ui-number-box" id="v-3966" stroke="none" stroke-width="0" fill="#FFFFFF" x="0" y="0" width="0" height="0" transform="translate(47.143070220947266,94.38613891601562)"/><path class="ui-number-leadline" id="v-3967" stroke="#000000" fill="none" d=""/><text class="ui-number-label" id="v-3968" font-family="OpenSansCondensedLight" font-size="14pt" fill="black" transform="translate(47.143070220947266,94.38613891601562)"/><rect class="ui-label-box" id="v-3969" stroke-width="0" fill="none" width="86.22937250137329" height="85.87037467956543" transform="translate(4.133512020111084,4.307878494262695)"/><text class="ui-label" id="v-3970" font-family="OpenSansCondensedLight" font-size="14pt" fill="black" transform="translate(4.133512020111084,4.307878494262695)" text-anchor="middle"><tspan x="43.11468505859375" y="28.235162043457034">NETWORK</tspan><tspan x="43.11468505859375" y="49.235199543457036">INTERFACE</tspan><tspan x="43.11468505859375" y="70.23523704345703">512</tspan></text><path class="ui-number-underline" id="v-3971" stroke="#000000" fill="none" transform="translate(4.133512020111084,4.307878494262695)" d="M 29.1166934967041 72 57.1126766204834 72"/></g><g id="j_217" model-id="cb2e231b-af80-72a8-6478-1b1b233e2019" class="tp Link link"><path class="connection" stroke="black" id="v-4111" stroke-dasharray="none" d="M 138 351 197 351"/><path class="marker-source" fill="black" stroke="black" id="v-4112" d="" transform="translate(138,351) scale(1,1) rotate(0)"/><path class="marker-target" fill="black" stroke="black" id="v-4113" d="M 8 0 L 0 4 L 8 8 z" transform="translate(205,355) scale(1,1) rotate(-180)"/><g class="labels" id="v-4115"><g class="js-link-label" id="v-4123" label-idx="0" cursor="move" transform="translate(167.5, 351)"><rect fill="white" rx="3" ry="3" x="0" y="0" width="0" height="0"/><text class="ui-link-label" text-anchor="middle" font-size="14pt" font-family="OpenSansCondensedLight" id="v-4124" y="0.8em" display="none" xml:space="preserve" transform="translate(0,0)"/></g></g></g><g id="j_218" model-id="4e4869fb-4163-47b2-8c79-85b7a547934b" class="tp Link link"><path class="connection" stroke="black" id="v-4125" stroke-dasharray="none" d="M 445 281 545 281"/><path class="marker-source" fill="black" stroke="black" id="v-4126" d="" transform="translate(445,281) scale(1,1) rotate(0)"/><path class="marker-target" fill="black" stroke="black" id="v-4127" d="M 8 0 L 0 4 L 8 8 z" transform="translate(553,285) scale(1,1) rotate(-180)"/><g class="labels" id="v-4129"><g class="js-link-label" id="v-4137" label-idx="0" cursor="move" transform="translate(495, 281)"><rect fill="white" rx="3" ry="3" x="0" y="0" width="0" height="0"/><text class="ui-link-label" text-anchor="middle" font-size="14pt" font-family="OpenSansCondensedLight" id="v-4138" y="0.8em" display="none" xml:space="preserve" transform="translate(0,0)"/></g></g></g><g id="j_216" model-id="2a7f2b0c-d2d9-fb15-db07-4c15ab485dde" class="tp Link link"><path class="connection" stroke="black" id="v-4097" stroke-dasharray="none" d="M 272 142 272 188"/><path class="marker-source" fill="black" stroke="black" id="v-4098" d="" transform="translate(272,142) scale(1,1) rotate(-270)"/><path class="marker-target" fill="black" stroke="black" id="v-4099" d="M 8 0 L 0 4 L 8 8 z" transform="translate(268,196) scale(1,1) rotate(-90)"/><g class="labels" id="v-4101"><g class="js-link-label" id="v-4109" label-idx="0" cursor="move" transform="translate(272, 165)"><rect fill="white" rx="3" ry="3" x="0" y="0" width="0" height="0"/><text class="ui-link-label" text-anchor="middle" font-size="14pt" font-family="OpenSansCondensedLight" id="v-4110" y="0.8em" display="none" xml:space="preserve" transform="translate(0,0)"/></g></g></g><g id="j_219" model-id="694c0a70-3918-1b2f-97e7-76bc9692bf66" class="tp Link link"><path class="connection" stroke="black" id="v-4139" stroke-dasharray="none" d="M 323 503 323 598"/><path class="marker-source" fill="black" stroke="black" id="v-4140" d="" transform="translate(323,503) scale(1,1) rotate(-270)"/><path class="marker-target" fill="black" stroke="black" id="v-4141" d="M 8 0 L 0 4 L 8 8 z" transform="translate(319,606) scale(1,1) rotate(-90)"/><g class="labels" id="v-4143"><g class="js-link-label" id="v-4151" label-idx="0" cursor="move" transform="translate(323, 550.5)"><rect fill="white" rx="3" ry="3" x="0" y="0" width="0" height="0"/><text class="ui-link-label" text-anchor="middle" font-size="14pt" font-family="OpenSansCondensedLight" id="v-4152" y="0.8em" display="none" xml:space="preserve" transform="translate(0,0)"/></g></g></g><g id="j_223" model-id="c81e747d-72c4-0844-44cb-138073eda333" class="tp Link link"><path class="connection" stroke="black" id="v-4195" stroke-dasharray="none" d="M 274 610 274 517"/><path class="marker-source" fill="black" stroke="black" id="v-4196" d="" transform="translate(274,610) scale(1,1) rotate(-90)"/><path class="marker-target" fill="black" stroke="black" id="v-4197" d="M 8 0 L 0 4 L 8 8 z" transform="translate(278,509) scale(1,1) rotate(-270)"/><g class="labels" id="v-4199"><g class="js-link-label" id="v-4207" label-idx="0" cursor="move" transform="translate(274, 563.5)"><rect fill="white" rx="3" ry="3" x="0" y="0" width="0" height="0"/><text class="ui-link-label" text-anchor="middle" font-size="14pt" font-family="OpenSansCondensedLight" id="v-4208" y="0.8em" display="none" xml:space="preserve" transform="translate(0,0)"/></g></g></g><g id="j_222" model-id="20c39dec-6c6b-036c-1e3c-66b9c1cffd34" class="tp Link link"><path class="connection" stroke="black" id="v-4181" stroke-dasharray="none" d="M 321 200 321 149"/><path class="marker-source" fill="black" stroke="black" id="v-4182" d="" transform="translate(321,200) scale(1,1) rotate(-90)"/><path class="marker-target" fill="black" stroke="black" id="v-4183" d="M 8 0 L 0 4 L 8 8 z" transform="translate(325,141) scale(1,1) rotate(-270)"/><g class="labels" id="v-4185"><g class="js-link-label" id="v-4193" label-idx="0" cursor="move" transform="translate(321, 174.5)"><rect fill="white" rx="3" ry="3" x="0" y="0" width="0" height="0"/><text class="ui-link-label" text-anchor="middle" font-size="14pt" font-family="OpenSansCondensedLight" id="v-4194" y="0.8em" display="none" xml:space="preserve" transform="translate(0,0)"/></g></g></g><g id="j_221" model-id="daee3ca0-08fb-8e88-70e8-1ae691e40f5e" class="tp Link link"><path class="connection" stroke="black" id="v-4167" stroke-dasharray="none" d="M 445 423 514 423"/><path class="marker-source" fill="black" stroke="black" id="v-4168" d="" transform="translate(445,423) scale(1,1) rotate(0)"/><path class="marker-target" fill="black" stroke="black" id="v-4169" d="M 8 0 L 0 4 L 8 8 z" transform="translate(522,427) scale(1,1) rotate(-180)"/><g class="labels" id="v-4171"><g class="js-link-label" id="v-4179" label-idx="0" cursor="move" transform="translate(479.5, 423)"><rect fill="white" rx="3" ry="3" x="0" y="0" width="0" height="0"/><text class="ui-link-label" text-anchor="middle" font-size="14pt" font-family="OpenSansCondensedLight" id="v-4180" y="0.8em" display="none" xml:space="preserve" transform="translate(0,0)"/></g></g></g><g id="j_220" model-id="38f88f5a-4458-9540-b44d-b025ff80f975" class="tp Link link"><path class="connection" stroke="black" id="v-4153" stroke-dasharray="none" d="M 531 447 457 447"/><path class="marker-source" fill="black" stroke="black" id="v-4154" d="" transform="translate(531,447) scale(1,1) rotate(-180)"/><path class="marker-target" fill="black" stroke="black" id="v-4155" d="M 8 0 L 0 4 L 8 8 z" transform="translate(449,443) scale(1,1) rotate(0)"/><g class="labels" id="v-4157"><g class="js-link-label" id="v-4165" label-idx="0" cursor="move" transform="translate(494, 447)"><rect fill="white" rx="3" ry="3" x="0" y="0" width="0" height="0"/><text class="ui-link-label" text-anchor="middle" font-size="14pt" font-family="OpenSansCondensedLight" id="v-4166" y="0.8em" display="none" xml:space="preserve" transform="translate(0,0)"/></g></g></g><g id="j_214" model-id="d8e2cee1-7b0d-41df-8164-fe03ce05e2ce" class="element tp Element" transform="translate(233.25,442.00000000000045)"><g class="rotatable" id="v-4053"><g class="scalable" id="v-4063">
<path class="ui-fill ui-stroke js-perimeter" d="M186.99593372383413,0H0v40.99910846351443h186.99593372383413V0L186.99593372383413,0z" id="v-4060" stroke="#000000" stroke-dasharray="none" fill="#FFFFFF"/>
<rect class="ui-interior-label" x="8.180564621222876" y="1.8692602642939709" width="170.65510364918296" height="37.26058793492649" id="v-4061" fill="none"/>
<circle class="js-number-connector-1 js-link-connector" fill="none" cx="93.49796686191706" cy="0" r="0.1" id="v-4064"/>
<circle class="js-number-connector-2 js-link-connector" fill="none" cx="139.84096693698362" cy="0" r="0.1" id="v-4065"/>
<circle class="js-number-connector-3 js-link-connector" fill="none" cx="186.99593372383413" cy="10.338789509416417" r="0.1" id="v-4066"/>
<circle class="js-number-connector-4 js-link-connector" fill="none" cx="186.99593372383413" cy="20.499554231757216" r="0.1" id="v-4062"/>
<circle class="js-number-connector-5 js-link-connector" fill="none" cx="186.99593372383413" cy="30.660318954098013" r="0.1" id="v-4067"/>
<circle class="js-number-connector-6 js-link-connector" fill="none" cx="139.84096693698362" cy="40.99910846351443" r="0.1" id="v-4068"/>
<circle class="js-number-connector-7 js-link-connector" fill="none" cx="93.49796686191706" cy="40.99910846351443" r="0.1" id="v-4069"/>
<circle class="js-number-connector-8 js-link-connector" fill="none" cx="47.175265954645084" cy="40.99910846351443" r="0.1" id="v-4070"/>
<circle class="js-number-connector-9 js-link-connector" fill="none" cx="0" cy="30.660318954098013" r="0.1" id="v-4071"/>
<circle class="js-number-connector-10 js-link-connector" fill="none" cx="0" cy="20.499554231757216" r="0.1" id="v-4072"/>
<circle class="js-number-connector-11 js-link-connector" fill="none" cx="0" cy="10.338789509416417" r="0.1" id="v-4073"/>
<circle class="js-number-connector-12 js-link-connector" fill="none" cx="47.175265954645084" cy="0" r="0.1" id="v-4074"/>
</g></g><rect class="ui-number-box" id="v-4054" stroke="none" stroke-width="0" fill="#FFFFFF" x="0" y="0" width="0" height="0" transform="translate(186.89593505859375,20.399553298950195)"/><path class="ui-number-leadline" id="v-4055" stroke="#000000" fill="none" d=""/><text class="ui-number-label" id="v-4056" font-family="OpenSansCondensedLight" font-size="14pt" fill="black" transform="translate(186.89593505859375,20.399553298950195)"/><rect class="ui-label-box" id="v-4057" stroke-width="0" fill="none" width="170.65509796142578" height="37.260584473609924" transform="translate(8.180564880371094,1.8692601919174194)"/><text class="ui-label" id="v-4058" font-family="OpenSansCondensedLight" font-size="14pt" fill="black" transform="translate(8.180564880371094,1.8692604303359985)" text-anchor="middle"><tspan x="85.32755279541016" y="24.930302235107423"> 520</tspan></text><path class="ui-number-underline" id="v-4059" stroke="#000000" fill="none" transform="translate(8.180564880371094,1.8692604303359985)" d="M 71.32956123352051 27 99.3255443572998 27"/></g><g id="j_212" model-id="978932c4-c70c-4e67-a207-fe03d4b6028b" class="element tp Element" transform="translate(233.25,215.0000000000003)"><g class="rotatable" id="v-4009"><g class="scalable" id="v-4019">
<path class="ui-fill ui-stroke js-perimeter" d="M183.99599895821112,0H0v46.99897799476045h183.99599895821112V0L183.99599895821112,0z" id="v-4016" stroke="#000000" stroke-dasharray="none" fill="#FFFFFF"/>
<rect class="ui-interior-label" x="8.049325616604328" y="2.1428105468735765" width="167.91732123769873" height="42.7133569010133" id="v-4017" fill="none"/>
<circle class="js-number-connector-1 js-link-connector" fill="none" cx="91.99799947910556" cy="0" r="0.1" id="v-4020"/>
<circle class="js-number-connector-2 js-link-connector" fill="none" cx="137.59752896473256" cy="0" r="0.1" id="v-4021"/>
<circle class="js-number-connector-3 js-link-connector" fill="none" cx="183.99599895821112" cy="11.851783096160283" r="0.1" id="v-4022"/>
<circle class="js-number-connector-4 js-link-connector" fill="none" cx="183.99599895821112" cy="23.499488997380226" r="0.1" id="v-4018"/>
<circle class="js-number-connector-5 js-link-connector" fill="none" cx="183.99599895821112" cy="35.14719489860016" r="0.1" id="v-4023"/>
<circle class="js-number-connector-6 js-link-connector" fill="none" cx="137.59752896473256" cy="46.99897799476045" r="0.1" id="v-4024"/>
<circle class="js-number-connector-7 js-link-connector" fill="none" cx="91.99799947910556" cy="46.99897799476045" r="0.1" id="v-4025"/>
<circle class="js-number-connector-8 js-link-connector" fill="none" cx="46.41844350617484" cy="46.99897799476045" r="0.1" id="v-4026"/>
<circle class="js-number-connector-9 js-link-connector" fill="none" cx="0" cy="35.14719489860016" r="0.1" id="v-4027"/>
<circle class="js-number-connector-10 js-link-connector" fill="none" cx="0" cy="23.499488997380226" r="0.1" id="v-4028"/>
<circle class="js-number-connector-11 js-link-connector" fill="none" cx="0" cy="11.851783096160283" r="0.1" id="v-4029"/>
<circle class="js-number-connector-12 js-link-connector" fill="none" cx="46.41844350617484" cy="0" r="0.1" id="v-4030"/>
</g></g><rect class="ui-number-box" id="v-4010" stroke="none" stroke-width="0" fill="#FFFFFF" x="0" y="0" width="0" height="0" transform="translate(183.89599609375,23.39948844909668)"/><path class="ui-number-leadline" id="v-4011" stroke="#000000" fill="none" d=""/><text class="ui-number-label" id="v-4012" font-family="OpenSansCondensedLight" font-size="14pt" fill="black" transform="translate(183.89599609375,23.39948844909668)"/><rect class="ui-label-box" id="v-4013" stroke-width="0" fill="none" width="167.91733360290527" height="42.713356256484985" transform="translate(8.049325942993164,2.142810583114624)"/><text class="ui-label" id="v-4014" font-family="OpenSansCondensedLight" font-size="14pt" fill="black" transform="translate(8.049325942993164,2.142810583114624)" text-anchor="middle"><tspan x="83.95866394042969" y="27.656689259033204"> 514</tspan></text><path class="ui-number-underline" id="v-4015" stroke="#000000" fill="none" transform="translate(8.049325942993164,2.142810583114624)" d="M 69.96067237854004 30 97.95665550231934 30"/></g><g id="j_211" model-id="95769f74-2743-48a6-85e8-f71642806074" class="element tp Element" transform="translate(231.42981885558572,279.62704130320583)"><g class="rotatable" id="v-3987"><g class="scalable" id="v-3997">
<path class="ui-fill ui-stroke js-perimeter" d="M186.99593372383413,0H0v47.99895624996812h186.99593372383413V0L186.99593372383413,0z" id="v-3994" stroke="#000000" stroke-dasharray="none" fill="#FFFFFF"/>
<rect class="ui-interior-label" x="8.180564621222876" y="2.188402260636844" width="170.65510364918296" height="43.622151728694426" id="v-3995" fill="none"/>
<circle class="js-number-connector-1 js-link-connector" fill="none" cx="93.49796686191706" cy="0" r="0.1" id="v-3998"/>
<circle class="js-number-connector-2 js-link-connector" fill="none" cx="139.84096693698362" cy="0" r="0.1" id="v-3999"/>
<circle class="js-number-connector-3 js-link-connector" fill="none" cx="186.99593372383413" cy="12.103948693950926" r="0.1" id="v-4000"/>
<circle class="js-number-connector-4 js-link-connector" fill="none" cx="186.99593372383413" cy="23.99947812498406" r="0.1" id="v-3996"/>
<circle class="js-number-connector-5 js-link-connector" fill="none" cx="186.99593372383413" cy="35.895007556017184" r="0.1" id="v-4001"/>
<circle class="js-number-connector-6 js-link-connector" fill="none" cx="139.84096693698362" cy="47.99895624996812" r="0.1" id="v-4002"/>
<circle class="js-number-connector-7 js-link-connector" fill="none" cx="93.49796686191706" cy="47.99895624996812" r="0.1" id="v-4003"/>
<circle class="js-number-connector-8 js-link-connector" fill="none" cx="47.175265954645084" cy="47.99895624996812" r="0.1" id="v-4004"/>
<circle class="js-number-connector-9 js-link-connector" fill="none" cx="0" cy="35.895007556017184" r="0.1" id="v-4005"/>
<circle class="js-number-connector-10 js-link-connector" fill="none" cx="0" cy="23.99947812498406" r="0.1" id="v-4006"/>
<circle class="js-number-connector-11 js-link-connector" fill="none" cx="0" cy="12.103948693950926" r="0.1" id="v-4007"/>
<circle class="js-number-connector-12 js-link-connector" fill="none" cx="47.175265954645084" cy="0" r="0.1" id="v-4008"/>
</g></g><rect class="ui-number-box" id="v-3988" stroke="none" stroke-width="0" fill="#FFFFFF" x="0" y="0" width="0" height="0" transform="translate(186.89593505859375,23.899477005004883)"/><path class="ui-number-leadline" id="v-3989" stroke="#000000" fill="none" d=""/><text class="ui-number-label" id="v-3990" font-family="OpenSansCondensedLight" font-size="14pt" fill="black" transform="translate(186.89593505859375,23.899477005004883)"/><rect class="ui-label-box" id="v-3991" stroke-width="0" fill="none" width="170.65509796142578" height="43.62215232849121" transform="translate(8.180564880371094,2.1884021759033203)"/><text class="ui-label" id="v-3992" font-family="OpenSansCondensedLight" font-size="14pt" fill="black" transform="translate(8.180564880371094,2.1884021759033203)" text-anchor="middle"><tspan x="85.32755279541016" y="28.111088367919923"> 516</tspan></text><path class="ui-number-underline" id="v-3993" stroke="#000000" fill="none" transform="translate(8.180564880371094,2.1884021759033203)" d="M 71.32956123352051 30 99.3255443572998 30"/></g><g id="j_215" model-id="5f9d4340-7072-47ff-a1d6-268e9468d7f7" class="element tp Element" transform="translate(233.25,377.0000000000003)"><g class="rotatable" id="v-4075"><g class="scalable" id="v-4085">
<path class="ui-fill ui-stroke js-perimeter" d="M185.99595546862645,0H0v48.99893450517579h185.99595546862645V0L185.99595546862645,0z" id="v-4082" stroke="#000000" stroke-dasharray="none" fill="#FFFFFF"/>
<rect class="ui-interior-label" x="8.136818286350028" y="2.2339939744001116" width="169.74250951202157" height="44.53094655637556" id="v-4083" fill="none"/>
<circle class="js-number-connector-1 js-link-connector" fill="none" cx="92.99797773431322" cy="0" r="0.1" id="v-4086"/>
<circle class="js-number-connector-2 js-link-connector" fill="none" cx="139.0931542795666" cy="0" r="0.1" id="v-4087"/>
<circle class="js-number-connector-3 js-link-connector" fill="none" cx="185.99595546862645" cy="12.356114291741571" r="0.1" id="v-4088"/>
<circle class="js-number-connector-4 js-link-connector" fill="none" cx="185.99595546862645" cy="24.499467252587895" r="0.1" id="v-4084"/>
<circle class="js-number-connector-5 js-link-connector" fill="none" cx="185.99595546862645" cy="36.64282021343421" r="0.1" id="v-4089"/>
<circle class="js-number-connector-6 js-link-connector" fill="none" cx="139.0931542795666" cy="48.99893450517579" r="0.1" id="v-4090"/>
<circle class="js-number-connector-7 js-link-connector" fill="none" cx="92.99797773431322" cy="48.99893450517579" r="0.1" id="v-4091"/>
<circle class="js-number-connector-8 js-link-connector" fill="none" cx="46.922991805155" cy="48.99893450517579" r="0.1" id="v-4092"/>
<circle class="js-number-connector-9 js-link-connector" fill="none" cx="0" cy="36.64282021343421" r="0.1" id="v-4093"/>
<circle class="js-number-connector-10 js-link-connector" fill="none" cx="0" cy="24.499467252587895" r="0.1" id="v-4094"/>
<circle class="js-number-connector-11 js-link-connector" fill="none" cx="0" cy="12.356114291741571" r="0.1" id="v-4095"/>
<circle class="js-number-connector-12 js-link-connector" fill="none" cx="46.922991805155" cy="0" r="0.1" id="v-4096"/>
</g></g><rect class="ui-number-box" id="v-4076" stroke="none" stroke-width="0" fill="#FFFFFF" x="0" y="0" width="0" height="0" transform="translate(185.8959503173828,24.39946746826172)"/><path class="ui-number-leadline" id="v-4077" stroke="#000000" fill="none" d=""/><text class="ui-number-label" id="v-4078" font-family="OpenSansCondensedLight" font-size="14pt" fill="black" transform="translate(185.8959503173828,24.39946746826172)"/><rect class="ui-label-box" id="v-4079" stroke-width="0" fill="none" width="169.74251556396484" height="44.53094816207886" transform="translate(8.136817932128906,2.2339940071105957)"/><text class="ui-label" id="v-4080" font-family="OpenSansCondensedLight" font-size="14pt" fill="black" transform="translate(8.136817932128906,2.2339940071105957)" text-anchor="middle"><tspan x="84.87126159667969" y="28.56548556945801"> 518</tspan></text><path class="ui-number-underline" id="v-4081" stroke="#000000" fill="none" transform="translate(8.136817932128906,2.2339940071105957)" d="M 70.87327003479004 31 98.86925315856934 31"/></g></g><defs id="v-3862"/></svg>